<?xml version="1.0" encoding="iso-8859-1"?>
<!-- Uploaded to: SVG Repo, www.svgrepo.com, Generator: SVG Repo Mixer Tools -->
<svg height="800px" width="800px" version="1.1" id="Layer_1" xmlns="http://www.w3.org/2000/svg" xmlns:xlink="http://www.w3.org/1999/xlink" 
	 viewBox="0 0 512 512" xml:space="preserve">
<path style="fill:#FFC033;" d="M359.611,91.911H152.137c-11.4-2.026-17.617-13.3-15.605-24.7l8.871-49.916
	c1.872-10.534,11.302-17.798,21.71-17.253C167.393,0.028,167.658,0,167.952,0h179.673c2.277,0,4.443,0.363,6.496,1.034
	c7.754,1.956,14.054,8.27,15.535,16.653l8.871,49.93C380.539,79.016,370.997,89.885,359.611,91.911z"/>
<path style="fill:#F9A926;" d="M359.611,91.911H254.638V0h92.987c2.277,0,4.443,0.363,6.496,1.034
	c7.754,1.956,14.054,8.27,15.535,16.653l8.871,49.93C380.539,79.016,370.997,89.885,359.611,91.911z"/>
<path style="fill:#E6563A;" d="M406.761,106.37v350.586c0,30.358-24.7,55.043-55.057,55.043H160.296
	c-30.358,0-55.057-24.686-55.057-55.043V106.37c0-30.358,24.7-55.057,55.057-55.057h191.408
	C382.062,51.313,406.761,76.013,406.761,106.37z"/>
<path style="fill:#D9472B;" d="M406.761,106.37v350.586c0,30.358-24.7,55.043-55.057,55.043h-97.066V51.313h97.066
	C382.062,51.313,406.761,76.013,406.761,106.37z"/>
<path style="fill:#FFC033;" d="M332.299,280.441c0,41.883-34.074,75.943-75.943,75.943c-0.573,0-1.146,0-1.718-0.028
	c-41.087-0.908-74.225-34.605-74.225-75.915c0-41.296,33.138-74.993,74.225-75.901c0.573-0.028,1.146-0.028,1.718-0.028
	C298.225,204.512,332.299,238.572,332.299,280.441z"/>
<path style="fill:#F9A926;" d="M332.299,280.441c0,41.883-34.074,75.943-75.943,75.943c-0.573,0-1.146,0-1.718-0.028V204.54
	c0.573-0.028,1.146-0.028,1.718-0.028C298.225,204.512,332.299,238.572,332.299,280.441z"/>
</svg>