<?xml version="1.0" encoding="UTF-8"?>
<svg version="1.1" xmlns="http://www.w3.org/2000/svg" width="1000" height="667">
<path d="M0 0 C1.54686745 -0.01441132 1.54686745 -0.01441132 3.12498474 -0.02911377 C4.24268753 -0.03336365 5.36039032 -0.03761353 6.51196289 -0.04199219 C7.65621231 -0.04769226 8.80046173 -0.05339233 9.97938538 -0.05926514 C12.40291415 -0.06872337 14.82645583 -0.07525238 17.25 -0.07910156 C20.96580286 -0.08881798 24.68105531 -0.11983877 28.39672852 -0.15136719 C30.74763668 -0.1578959 33.09854881 -0.16314689 35.44946289 -0.16699219 C36.56514145 -0.17933899 37.68082001 -0.19168579 38.83030701 -0.20440674 C39.86470413 -0.20140564 40.89910126 -0.19840454 41.96484375 -0.1953125 C43.331464 -0.20078094 43.331464 -0.20078094 44.72569275 -0.20635986 C47.50021557 0.2328601 48.37023649 0.94947717 50.04711914 3.16113281 C50.57128906 5.15966797 50.57128906 5.15966797 50.77758789 7.45019531 C50.85831543 8.30202393 50.93904297 9.15385254 51.0222168 10.03149414 C51.09230957 10.9405249 51.16240234 11.84955566 51.23461914 12.78613281 C51.31502441 13.71514404 51.39542969 14.64415527 51.47827148 15.60131836 C52.16093773 24.12882415 52.24876914 32.61341354 52.04711914 41.16113281 C52.70711914 41.49113281 53.36711914 41.82113281 54.04711914 42.16113281 C54.33468211 44.81145541 54.51485023 47.3779804 54.60961914 50.03613281 C54.79123516 55.67874263 54.79123516 55.67874263 56.04711914 61.16113281 C56.20550834 62.62028906 56.31939483 64.08453484 56.40429688 65.54980469 C56.45782822 66.43502808 56.51135956 67.32025146 56.56651306 68.2322998 C56.64779198 69.66660339 56.64779198 69.66660339 56.73071289 71.12988281 C56.85493335 73.16634899 56.97928666 75.20280706 57.10375977 77.23925781 C57.29465875 80.44029889 57.48347531 83.64144147 57.66943359 86.84277344 C57.85080675 89.93884928 58.04037235 93.03434709 58.23071289 96.12988281 C58.2828746 97.06989136 58.33503632 98.0098999 58.38877869 98.97839355 C58.74379615 104.68062301 59.49241497 110.17927987 60.60131836 115.78488159 C61.16280577 118.77777709 61.42128317 121.74871444 61.60961914 124.78613281 C61.54732677 128.28841264 61.54732677 128.28841264 63.04711914 131.16113281 C64.76789585 123.27997546 66.20809559 115.49690875 67.04711914 107.47363281 C67.56328062 102.5733864 68.2427109 97.92874491 69.54711914 93.16113281 C70.79380857 88.59405271 71.45388699 84.11106116 71.92211914 79.41113281 C72.63027732 72.50444349 73.87717584 65.81679247 75.35961914 59.03613281 C77.74413312 48.11836369 79.58187109 37.15159026 81.25927734 26.10791016 C84.06305411 7.93260231 84.06305411 7.93260231 86.04711914 2.16113281 C89.80169391 -0.34191703 92.76277013 -0.12756975 97.10961914 -0.10449219 C98.29116577 -0.10736237 98.29116577 -0.10736237 99.49658203 -0.11029053 C101.16089192 -0.11165066 102.82521248 -0.10796618 104.48950195 -0.09960938 C107.03759583 -0.08890719 109.5849847 -0.0995102 112.13305664 -0.11230469 C113.7502457 -0.11098306 115.36743432 -0.10842061 116.98461914 -0.10449219 C118.12846069 -0.11056488 118.12846069 -0.11056488 119.29541016 -0.11676025 C123.08210589 -0.08317656 124.8186018 0.00878792 128.04711914 2.16113281 C127.4294245 10.88851814 125.77689005 19.40009328 124.10961914 27.97363281 C123.57663924 30.72956824 123.0471507 33.48615103 122.51977539 36.24316406 C122.39116119 36.90905548 122.262547 37.5749469 122.1300354 38.26101685 C121.0857349 43.74651422 120.28386555 49.25126939 119.57226562 54.78881836 C119.39896729 55.57168213 119.22566895 56.3545459 119.04711914 57.16113281 C118.05711914 57.65613281 118.05711914 57.65613281 117.04711914 58.16113281 C117.33522461 59.41410156 117.33522461 59.41410156 117.62915039 60.69238281 C118.11093991 64.69078551 117.57758095 67.72997442 116.73461914 71.66113281 C116.33823242 73.56378906 116.33823242 73.56378906 115.93383789 75.50488281 C115.04711914 79.16113281 115.04711914 79.16113281 114.00415039 82.05566406 C112.74832728 86.13068192 112.41601226 90.1139247 112.04711914 94.34863281 C111.44180449 100.71177377 110.68621062 106.95607404 109.41430664 113.22753906 C108.98493085 115.16058882 108.98493085 115.16058882 109.04711914 117.16113281 C108.38711914 117.16113281 107.72711914 117.16113281 107.04711914 117.16113281 C107.37711914 118.15113281 107.70711914 119.14113281 108.04711914 120.16113281 C107.73339844 122.65039063 107.73339844 122.65039063 107.12133789 125.61425781 C106.79335205 127.24512329 106.79335205 127.24512329 106.45874023 128.90893555 C106.10030029 130.64252319 106.10030029 130.64252319 105.73461914 132.41113281 C104.04240938 140.83699935 102.47960899 149.16650612 101.60180664 157.71972656 C101.12657608 160.66816408 100.45244326 163.31162355 99.61743164 166.16894531 C97.72543515 172.89267784 96.8981809 179.67834672 96.04711914 186.59863281 C95.05316893 194.65552583 93.84503082 202.42651893 91.76538086 210.27709961 C90.56817281 215.08424396 89.8488772 219.95372805 89.10961914 224.84863281 C88.94413574 225.90574463 88.77865234 226.96285645 88.6081543 228.05200195 C87.89617368 232.60404769 87.19861356 237.15815431 86.51049805 241.71386719 C86.15659189 244.0552409 85.79965619 246.39615902 85.43945312 248.73657227 C85.09964327 250.94493544 84.76689877 253.15439961 84.44189453 255.36499023 C84.28841553 256.35861572 84.13493652 257.35224121 83.97680664 258.37597656 C83.84516113 259.25374756 83.71351563 260.13151855 83.57788086 261.03588867 C83.04711914 263.16113281 83.04711914 263.16113281 81.04711914 265.16113281 C79.11169434 265.4151001 79.11169434 265.4151001 76.72094727 265.41992188 C75.82661987 265.4262262 74.93229248 265.43253052 74.01086426 265.43902588 C72.55927917 265.43295319 72.55927917 265.43295319 71.07836914 265.42675781 C70.08712036 265.42867126 69.09587158 265.43058472 68.07458496 265.43255615 C65.97639716 265.43391867 63.87820095 265.43021763 61.7800293 265.421875 C58.56027368 265.41117652 55.34107606 265.42176817 52.12133789 265.43457031 C50.0861804 265.43324873 48.05102327 265.43068636 46.01586914 265.42675781 C45.04814575 265.43080627 44.08042236 265.43485474 43.08337402 265.43902588 C41.74188293 265.4295694 41.74188293 265.4295694 40.37329102 265.41992188 C39.18987122 265.4175351 39.18987122 265.4175351 37.98254395 265.4151001 C36.04711914 265.16113281 36.04711914 265.16113281 34.04711914 263.16113281 C33.68408203 260.73217773 33.68408203 260.73217773 33.51977539 257.64160156 C33.45137451 256.48740723 33.38297363 255.33321289 33.3125 254.14404297 C33.24554932 252.89155762 33.17859863 251.63907227 33.10961914 250.34863281 C32.94969874 247.71416328 32.78691278 245.08013531 32.61743164 242.44628906 C32.57406174 241.76806091 32.53069183 241.08983276 32.48600769 240.39105225 C31.99736789 233.00365796 31.26166399 225.64847945 30.48461914 218.28613281 C30.35772705 217.07594482 30.23083496 215.86575684 30.10009766 214.61889648 C29.42016009 208.259248 29.42016009 208.259248 28.56079102 201.92211914 C27.92721831 197.28324676 27.53050522 192.64258446 27.14477539 187.97753906 C26.9749114 185.97688311 26.80498756 183.97623223 26.63500977 181.97558594 C26.37290894 178.86280339 26.11181447 175.74994135 25.85205078 172.63696289 C24.92540457 161.56579328 23.95070321 150.52837827 22.46704102 139.51635742 C21.91362634 135.09450981 21.58290272 130.66948482 21.29321289 126.22363281 C21.0528401 123.23232701 20.67437818 120.27338025 20.29003906 117.29785156 C19.86909392 113.59522658 19.68126629 109.88130995 19.48461914 106.16113281 C19.41984375 104.99904297 19.41984375 104.99904297 19.35375977 103.81347656 C19.24909421 101.9294966 19.14775253 100.04533245 19.04711914 98.16113281 C17.88784386 100.47968336 17.64912442 102.38144254 17.29321289 104.95019531 C17.09501953 106.36171875 17.09501953 106.36171875 16.89282227 107.80175781 C16.75811523 108.78660156 16.6234082 109.77144531 16.48461914 110.78613281 C16.34604492 111.77871094 16.2074707 112.77128906 16.06469727 113.79394531 C15.72237019 116.24925673 15.38331475 118.70497558 15.04711914 121.16113281 C14.38711914 121.16113281 13.72711914 121.16113281 13.04711914 121.16113281 C13.25079102 121.78503906 13.45446289 122.40894531 13.66430664 123.05175781 C14.21912168 127.55821469 13.15474023 131.51211391 12.17211914 135.91113281 C10.92840367 141.60649195 9.85628944 147.20041718 9.2800293 153.00390625 C8.90247975 156.50079075 8.29365205 159.95057433 7.67211914 163.41113281 C7.54200439 164.14638184 7.41188965 164.88163086 7.27783203 165.63916016 C6.47882657 170.05888403 5.54636661 174.42057214 4.48461914 178.78613281 C3.42395462 183.199066 2.68826663 187.54327803 2.14086914 192.04785156 C1.19356509 199.50433419 -0.10717079 206.87028092 -1.49694824 214.25531006 C-3.80611802 226.54162649 -5.88572071 238.83860532 -7.66479492 251.21337891 C-9.51510504 263.723357 -9.51510504 263.723357 -10.95288086 265.16113281 C-13.97096149 265.26226981 -16.96568599 265.3008219 -19.98413086 265.29394531 C-20.89038208 265.29490204 -21.7966333 265.29585876 -22.73034668 265.29684448 C-24.65039133 265.29752635 -26.57043827 265.29567163 -28.49047852 265.29150391 C-31.4402379 265.28615574 -34.389845 265.29144869 -37.33959961 265.29785156 C-39.20027703 265.29719078 -41.06095436 265.29590962 -42.92163086 265.29394531 C-44.25442078 265.29698166 -44.25442078 265.29698166 -45.61413574 265.30007935 C-51.83793097 265.2760827 -51.83793097 265.2760827 -52.95288086 264.16113281 C-52.10931964 250.87504362 -49.2725975 237.66653114 -46.82788086 224.59863281 C-46.65732178 223.67590576 -46.4867627 222.75317871 -46.31103516 221.80249023 C-46.14901611 220.95017822 -45.98699707 220.09786621 -45.82006836 219.21972656 C-45.60519775 218.0797522 -45.60519775 218.0797522 -45.38598633 216.91674805 C-44.95288086 215.16113281 -44.95288086 215.16113281 -43.95288086 214.16113281 C-43.9722168 213.18789063 -43.99155273 212.21464844 -44.01147461 211.21191406 C-44.07846862 206.4431587 -43.04508918 201.98410175 -42.01538086 197.34863281 C-41.83297852 196.49076172 -41.65057617 195.63289062 -41.46264648 194.74902344 C-40.10162176 188.45861461 -40.10162176 188.45861461 -38.95288086 186.16113281 C-38.7575751 184.7246383 -38.6094994 183.28152742 -38.48803711 181.83691406 C-38.41004883 180.97259766 -38.33206055 180.10828125 -38.25170898 179.21777344 C-38.09585521 177.4080664 -37.9421605 175.59817194 -37.79077148 173.78808594 C-37.32394241 168.66055684 -36.37293602 164.12297259 -34.95288086 159.16113281 C-34.76605467 157.57694213 -34.60953782 155.98901046 -34.47631836 154.39941406 C-34.00226932 148.91472879 -32.83251468 143.70037959 -31.57788086 138.34863281 C-29.65299948 129.85687317 -28.18038022 121.41512796 -27.04492188 112.78564453 C-26.28067986 107.11222754 -25.26136068 101.55996455 -24.01538086 95.97363281 C-22.34247702 88.45075097 -21.08514577 80.90853351 -19.95288086 73.28613281 C-18.6831282 64.74896773 -17.27376653 56.2733355 -15.60009766 47.80664062 C-13.52154946 37.17464958 -11.76325055 26.48523771 -9.97094727 15.80200195 C-9.84484573 15.05573044 -9.7187442 14.30945892 -9.58882141 13.54057312 C-9.35010043 12.12776203 -9.11333811 10.71461815 -8.87882996 9.30110168 C-8.40207723 6.48598501 -7.85790507 3.87620544 -6.95288086 1.16113281 C-4.46837453 -0.08112035 -2.7795504 0.02084928 0 0 Z " fill="#FEFAFA" transform="translate(607.952880859375,173.8388671875)"/>
<path d="M0 0 C0.73204147 -0.0049649 1.46408295 -0.00992981 2.2183075 -0.01504517 C4.64961685 -0.0296917 7.08086072 -0.03647695 9.51220703 -0.04199219 C11.20696005 -0.04774664 12.90171306 -0.05350434 14.59646606 -0.05926514 C18.15920311 -0.06978564 21.72191756 -0.07561977 25.28466797 -0.07910156 C29.8213811 -0.08455374 34.35778913 -0.10850626 38.89440727 -0.13707352 C42.40173162 -0.15583227 45.90898489 -0.16091273 49.41635513 -0.16243744 C51.08668795 -0.16544055 52.75702023 -0.17338867 54.42730331 -0.18662262 C70.8133062 -0.30706064 86.39155457 1.74779743 98.89501953 13.47363281 C102.79405343 17.69641321 105.15996795 21.70185435 106.89501953 27.16113281 C107.19150391 28.07765625 107.48798828 28.99417969 107.79345703 29.93847656 C111.27921439 42.10664789 110.00683573 53.54764408 107.52001953 65.78613281 C107.07464445 68.06997478 106.62933124 70.35382881 106.18408203 72.63769531 C105.96437744 73.73621826 105.74467285 74.83474121 105.51831055 75.96655273 C104.93593022 78.95145153 104.41167181 81.94098466 103.89892578 84.93847656 C103.02107503 89.79579964 101.78189482 94.42319942 100.20751953 99.09863281 C99.82321777 100.24924194 99.82321777 100.24924194 99.43115234 101.4230957 C96.65306715 109.38632851 92.56502666 116.15612211 87.89501953 123.16113281 C87.23501953 123.16113281 86.57501953 123.16113281 85.89501953 123.16113281 C85.89501953 123.82113281 85.89501953 124.48113281 85.89501953 125.16113281 C81.73304789 129.44986501 76.9490896 133.00233902 71.89501953 136.16113281 C72.65685547 136.71027344 72.65685547 136.71027344 73.43408203 137.27050781 C81.85734802 143.89554847 86.21308036 152.86620643 87.64501953 163.42675781 C87.72751953 164.32910156 87.81001953 165.23144531 87.89501953 166.16113281 C87.97751953 167.00160156 88.06001953 167.84207031 88.14501953 168.70800781 C88.67171921 180.09788843 86.50381105 193.33475826 82.89501953 204.16113281 C82.55360671 207.03588613 82.24332873 209.90592112 81.95751953 212.78613281 C81.30669089 219.04304754 80.42304704 225.04902277 78.89501953 231.16113281 C78.89501953 231.82113281 78.89501953 232.48113281 78.89501953 233.16113281 C78.23501953 233.16113281 77.57501953 233.16113281 76.89501953 233.16113281 C76.90025635 234.09497803 76.90549316 235.02882324 76.91088867 235.9909668 C76.92789573 239.44426078 76.94045255 242.89751049 76.94995117 246.35083008 C76.95499074 247.847582 76.96182241 249.34432897 76.97045898 250.84106445 C76.98254112 252.98813088 76.98825145 255.13513243 76.99267578 257.28222656 C76.9979126 258.57572021 77.00314941 259.86921387 77.00854492 261.2019043 C76.89501953 264.16113281 76.89501953 264.16113281 75.89501953 265.16113281 C74.48276907 265.25400542 73.06593019 265.27860053 71.65063477 265.2746582 C70.29934731 265.27454491 70.29934731 265.27454491 68.92076111 265.27442932 C67.94160233 265.26926804 66.96244354 265.26410675 65.95361328 265.25878906 C64.95620621 265.25737411 63.95879913 265.25595917 62.9311676 265.25450134 C59.7315883 265.24888396 56.53207784 265.23632852 53.33251953 265.22363281 C51.16910908 265.21862005 49.00569754 265.21405676 46.84228516 265.20996094 C41.52650628 265.19890888 36.21076782 265.18215385 30.89501953 265.16113281 C30.55688004 263.75552894 30.22594602 262.34819075 29.89794922 260.94018555 C29.71286804 260.15667221 29.52778687 259.37315887 29.33709717 258.56590271 C28.63410126 254.74181559 28.85525351 251.08156412 29.14501953 247.22363281 C29.20496094 246.12245117 29.20496094 246.12245117 29.26611328 244.99902344 C29.63604122 239.26514037 30.67804771 233.76914435 31.89501953 228.16113281 C34.1498083 217.41163453 36.17392888 206.77594867 37.38720703 195.85644531 C37.89218287 192.18177498 38.67378126 188.69265175 39.58251953 185.09863281 C41.48523116 177.16578893 40.21178467 172.24058296 36.63720703 165.07910156 C33.23883187 161.33784102 28.37637523 161.11545284 23.56298828 160.78222656 C22.06985535 160.71286982 20.57631829 160.65175142 19.08251953 160.59863281 C11.13882118 160.28303364 11.13882118 160.28303364 8.89501953 159.16113281 C8.95689453 160.04800781 9.01876953 160.93488281 9.08251953 161.84863281 C9.07588207 165.23373585 8.47127378 168.19541325 7.64501953 171.47363281 C6.0811832 177.88899858 5.04858131 184.31829324 4.08251953 190.84863281 C1.8693708 205.70772215 -0.73114932 220.48860158 -3.40429688 235.27050781 C-4.03714517 238.78446965 -4.65673439 242.30047577 -5.27294922 245.81738281 C-5.61194212 247.70295265 -5.95171334 249.58838282 -6.29248047 251.47363281 C-6.43492187 252.3022583 -6.57736328 253.13088379 -6.72412109 253.98461914 C-6.86398437 254.74025146 -7.00384766 255.49588379 -7.14794922 256.27441406 C-7.31846802 257.23021362 -7.31846802 257.23021362 -7.49243164 258.20532227 C-8.40831425 261.12964893 -9.02181084 262.83241659 -11.10498047 265.16113281 C-14.33322866 265.8819548 -17.5113351 265.74127235 -20.80419922 265.64941406 C-21.75438431 265.64233932 -22.7045694 265.63526459 -23.68354797 265.62797546 C-26.72065723 265.59996951 -29.75592782 265.53721926 -32.79248047 265.47363281 C-34.85039657 265.44855798 -36.90834154 265.42574339 -38.96630859 265.40527344 C-44.01324181 265.35012236 -49.05879935 265.26380663 -54.10498047 265.16113281 C-55.36475518 262.64158339 -55.07859474 261.26217932 -54.79248047 258.47363281 C-54.71384766 257.64476562 -54.63521484 256.81589844 -54.55419922 255.96191406 C-54.10498047 253.16113281 -54.10498047 253.16113281 -53.11279297 249.74316406 C-52.13903749 246.28218045 -51.65924559 243.10705476 -51.29248047 239.53613281 C-49.43879115 223.34492169 -46.21721813 207.31461578 -43.32763672 191.28222656 C-43.17488785 190.43403854 -43.02213898 189.58585052 -42.86476135 188.71195984 C-42.11483344 184.54974528 -41.36230392 180.38803706 -40.60424805 176.22729492 C-38.97935536 167.27102256 -37.45716841 158.30709041 -36.08773804 149.30783081 C-35.5608823 145.87625892 -34.96129531 142.52337682 -34.10498047 139.16113281 C-33.77672027 137.30708335 -33.46587201 135.44991059 -33.16748047 133.59082031 C-32.99474609 132.52992188 -32.82201172 131.46902344 -32.64404297 130.37597656 C-32.28343896 128.14179958 -31.92407221 125.90742257 -31.56591797 123.67285156 C-31.39318359 122.61453125 -31.22044922 121.55621094 -31.04248047 120.46582031 C-30.88650391 119.49628418 -30.73052734 118.52674805 -30.56982422 117.52783203 C-30.10498047 115.16113281 -30.10498047 115.16113281 -29.10498047 113.16113281 C-28.83066642 111.7141621 -28.59692395 110.25935196 -28.38623047 108.80175781 C-28.25861328 107.93292969 -28.13099609 107.06410156 -27.99951172 106.16894531 C-27.86931641 105.25886719 -27.73912109 104.34878906 -27.60498047 103.41113281 C-26.31029181 94.51495526 -24.84880213 85.68025925 -23.16748047 76.84863281 C-22.91321289 75.49995117 -22.91321289 75.49995117 -22.65380859 74.12402344 C-21.85092454 69.9020134 -21.01112896 65.7020787 -20.03466797 61.51660156 C-19.07864679 57.29054807 -18.58431883 53.09379656 -18.16748047 48.78613281 C-17.54819421 42.95494352 -16.5279933 37.58207516 -14.82373047 31.95800781 C-13.95620767 28.58221258 -13.52854764 25.24526471 -13.10498047 21.78613281 C-12.25075387 14.83842315 -11.26659204 7.84051257 -9.10498047 1.16113281 C-6.17272158 -0.30499663 -3.21485789 0.0051786 0 0 Z M29.89501953 42.16113281 C28.40073662 45.57674593 27.55902557 48.59307832 27.14892578 52.29394531 C27.03355469 53.26589844 26.91818359 54.23785156 26.79931641 55.23925781 C26.57409686 57.24692923 26.35010846 59.2547392 26.12744141 61.26269531 C25.41555588 67.24096049 24.24816589 72.80897086 22.57495117 78.58935547 C21.59496751 82.29605129 21.18069577 85.97641091 20.83251953 89.78613281 C20.29112098 95.00376803 19.59457295 100.0645348 18.34033203 105.16113281 C17.53819141 108.7637293 17.00214536 112.46941207 16.89501953 116.16113281 C17.90752307 117.39397582 17.90752307 117.39397582 19.99291992 117.29394531 C22.98266974 117.28545095 25.96856771 117.23068589 28.95751953 117.16113281 C29.98296875 117.16757812 31.00841797 117.17402344 32.06494141 117.18066406 C38.80206304 116.99962816 42.51189625 115.83921335 47.27563477 110.99462891 C48.07723022 110.08704834 48.07723022 110.08704834 48.89501953 109.16113281 C50.07064453 107.88109375 50.07064453 107.88109375 51.27001953 106.57519531 C56.93011144 98.16669339 57.64940561 86.32839789 59.14501953 76.53613281 C59.32033203 75.40481934 59.49564453 74.27350586 59.67626953 73.10791016 C62.23895695 58.55788815 62.23895695 58.55788815 57.89501953 45.16113281 C54.69611904 43.11714386 52.00884045 42.86689305 48.25439453 42.74707031 C46.64951172 42.6890625 46.64951172 42.6890625 45.01220703 42.62988281 C43.34544922 42.58347656 43.34544922 42.58347656 41.64501953 42.53613281 C40.51837891 42.49746094 39.39173828 42.45878906 38.23095703 42.41894531 C35.45247405 42.32475945 32.67399619 42.23913695 29.89501953 42.16113281 Z " fill="#FDFAFA" transform="translate(303.10498046875,173.8388671875)"/>
<path d="M0 0 C1.25139771 -0.00472824 1.25139771 -0.00472824 2.52807617 -0.009552 C3.43017822 -0.00752777 4.33228027 -0.00550354 5.26171875 -0.00341797 C6.64870972 -0.00485306 6.64870972 -0.00485306 8.0637207 -0.00631714 C10.02067126 -0.0069983 11.97762408 -0.00514847 13.93457031 -0.00097656 C16.93690039 0.00437258 19.93908085 -0.00092372 22.94140625 -0.00732422 C24.83984408 -0.00666343 26.73828182 -0.00538224 28.63671875 -0.00341797 C29.5388208 -0.0054422 30.44092285 -0.00746643 31.37036133 -0.009552 C32.20462646 -0.00639984 33.0388916 -0.00324768 33.8984375 0 C34.63408936 0.00079559 35.36974121 0.00159119 36.12768555 0.00241089 C37.94921875 0.12939453 37.94921875 0.12939453 39.94921875 1.12939453 C39.49072759 8.76564383 38.57677289 16.30722457 37.51171875 23.87939453 C37.38949951 24.7658667 37.26728027 25.65233887 37.14135742 26.56567383 C37.01736572 27.42717041 36.89337402 28.28866699 36.765625 29.17626953 C36.65677979 29.9377832 36.54793457 30.69929688 36.43579102 31.48388672 C35.90581216 34.36539747 35.17472781 37.17705881 34.45072937 40.01480103 C33.64151273 43.42682098 33.11182872 46.87181748 32.58203125 50.33642578 C32.33558751 51.90041242 32.08900034 53.46437647 31.84228516 55.02832031 C31.65391083 56.23442963 31.65391083 56.23442963 31.46173096 57.46490479 C29.49358147 70.04537581 27.44049957 82.55976051 24.61328125 94.98095703 C23.84602997 98.08234626 23.84602997 98.08234626 23.94921875 101.12939453 C24.4803125 100.24896484 25.01140625 99.36853516 25.55859375 98.46142578 C26.2719529 97.28813771 26.98550485 96.11496684 27.69921875 94.94189453 C28.04726563 94.36375 28.3953125 93.78560547 28.75390625 93.18994141 C30.9335498 89.6177478 33.32064758 86.37844387 35.94921875 83.12939453 C36.40296875 82.20126953 36.85671875 81.27314453 37.32421875 80.31689453 C38.69530624 77.62745369 40.04761136 75.60974259 41.88671875 73.25439453 C44.85440274 69.42082768 46.90994646 65.52167332 48.94921875 61.12939453 C49.60921875 61.12939453 50.26921875 61.12939453 50.94921875 61.12939453 C51.13387695 60.24405029 51.13387695 60.24405029 51.32226562 59.34082031 C52.31504287 55.83903826 54.45063967 53.00535692 56.44921875 50.00439453 C59.37683805 45.67145369 59.37683805 45.67145369 61.94921875 41.12939453 C62.60921875 41.12939453 63.26921875 41.12939453 63.94921875 41.12939453 C64.20316406 40.24509766 64.45710937 39.36080078 64.71875 38.44970703 C65.97542772 35.05867192 67.42596249 32.84493401 69.63671875 30.00439453 C73.28837776 25.15318873 76.362927 20.16101705 79.30859375 14.85595703 C80.98715746 12.06634402 82.88797659 9.64444927 84.94921875 7.12939453 C85.95490117 5.46615052 86.95586674 3.800032 87.94921875 2.12939453 C89.94921875 0.12939453 89.94921875 0.12939453 91.89810181 -0.1111145 C92.69308075 -0.10667328 93.48805969 -0.10223206 94.30712891 -0.09765625 C95.20791168 -0.09750519 96.10869446 -0.09735413 97.03677368 -0.09719849 C98.01077118 -0.08687592 98.98476868 -0.07655334 99.98828125 -0.06591797 C100.98427338 -0.06308807 101.9802655 -0.06025818 103.00643921 -0.05734253 C106.19581993 -0.04612387 109.38492253 -0.02101628 112.57421875 0.00439453 C114.73306887 0.01442215 116.89192338 0.02354838 119.05078125 0.03173828 C124.35035574 0.05382092 129.64976738 0.08731495 134.94921875 0.12939453 C134.27542107 4.90973816 133.31846776 7.49604783 130.32421875 11.31689453 C127.50517507 15.02536911 124.85490712 18.74055441 122.38671875 22.69189453 C120.18897824 26.2072849 117.92087045 29.63049203 115.51171875 33.00439453 C111.91937177 38.04343329 108.78204122 43.30577123 105.6484375 48.63720703 C105.08769531 49.45962891 104.52695312 50.28205078 103.94921875 51.12939453 C103.28921875 51.12939453 102.62921875 51.12939453 101.94921875 51.12939453 C101.71074219 51.98919922 101.47226562 52.84900391 101.2265625 53.73486328 C99.82749231 57.45288162 97.88315748 60.30879579 95.51171875 63.44189453 C91.63860402 68.70708734 87.97308192 74.0617982 84.44921875 79.56689453 C79.37558302 87.48500476 74.18495793 95.31778367 68.94921875 103.12939453 C68.22734375 104.22896484 67.50546875 105.32853516 66.76171875 106.46142578 C64.94921875 109.12939453 64.94921875 109.12939453 63.38671875 110.62939453 C60.99865186 113.12129042 60.04715664 114.77779465 58.94921875 118.12939453 C59.23159405 122.54150866 60.0703125 126.80168071 60.94921875 131.12939453 C61.09746094 131.96728516 61.24570312 132.80517578 61.3984375 133.66845703 C62.57820941 140.14096716 64.32097337 146.46557945 66.046875 152.80908203 C67.20188738 157.05912759 68.16334666 161.20594078 68.8515625 165.55908203 C69.01978516 166.60193359 69.18800781 167.64478516 69.36132812 168.71923828 C69.71027309 170.90111718 70.05664735 173.08340884 70.40039062 175.26611328 C70.56990234 176.31154297 70.73941406 177.35697266 70.9140625 178.43408203 C71.06480225 179.3826709 71.21554199 180.33125977 71.37084961 181.30859375 C71.99605069 184.35780157 72.95712106 187.1803109 73.94921875 190.12939453 C74.54490262 192.53248211 75.10867853 194.94359975 75.6484375 197.35986328 C75.80444427 198.05618362 75.96045105 198.75250397 76.1211853 199.46992493 C76.63049617 201.75135274 77.13423527 204.03395381 77.63671875 206.31689453 C77.80952362 207.09919434 77.98232849 207.88149414 78.16036987 208.6875 C80.70235988 220.21348748 83.17877866 231.75361123 85.53897095 243.31826782 C85.85303891 244.8536549 86.1698945 246.38847451 86.48959351 247.92269897 C86.93419586 250.06282819 87.36721284 252.20497279 87.796875 254.34814453 C88.04445557 255.564375 88.29203613 256.78060547 88.54711914 258.03369141 C88.92444924 260.93869785 88.74309329 262.39836463 87.94921875 265.12939453 C81.57718282 265.17999083 75.20519845 265.2150841 68.83300781 265.23925781 C66.66404281 265.24933242 64.49509144 265.26299251 62.32617188 265.28027344 C59.21350749 265.30445776 56.10102224 265.31586285 52.98828125 265.32470703 C52.01428375 265.3350296 51.04028625 265.34535217 50.03677368 265.35598755 C49.13599091 265.35613861 48.23520813 265.35628967 47.30712891 265.35644531 C46.51214996 265.36088654 45.71717102 265.36532776 44.89810181 265.36990356 C42.94921875 265.12939453 42.94921875 265.12939453 40.94921875 263.12939453 C40.38671875 261.27270508 40.38671875 261.27270508 39.94921875 259.01611328 C39.78550781 258.18692383 39.62179687 257.35773438 39.453125 256.50341797 C39.28683594 255.61686523 39.12054687 254.7303125 38.94921875 253.81689453 C38.68431641 252.45419434 38.68431641 252.45419434 38.4140625 251.06396484 C37.47824039 246.18209285 36.64447874 241.30208359 35.94921875 236.37939453 C35.16919805 230.99451478 33.91267817 225.79352838 32.54638672 220.53564453 C31.00747806 214.54303582 29.78194758 208.5122328 28.59912109 202.44067383 C26.22235242 190.30110216 23.56426869 178.21941499 20.94921875 166.12939453 C20.49546875 166.95439453 20.04171875 167.77939453 19.57421875 168.62939453 C19.03796875 169.45439453 18.50171875 170.27939453 17.94921875 171.12939453 C17.28921875 171.12939453 16.62921875 171.12939453 15.94921875 171.12939453 C15.86671875 171.85126953 15.78421875 172.57314453 15.69921875 173.31689453 C14.79388638 176.71189091 13.23618098 178.49592287 10.94921875 181.12939453 C6.32971445 188.05865098 6.47578285 197.59410947 5.609375 205.71142578 C5.15053148 209.26023474 4.37731625 212.68174448 3.54296875 216.16064453 C1.7642218 223.65281109 0.55799501 231.21236729 -0.61328125 238.81689453 C-4.45554315 263.53415644 -4.45554315 263.53415644 -6.05078125 265.12939453 C-7.42688007 265.22734764 -8.80792007 265.25737541 -10.1875 265.25878906 C-11.06510986 265.26194122 -11.94271973 265.26509338 -12.84692383 265.26834106 C-13.80107178 265.26631683 -14.75521973 265.2642926 -15.73828125 265.26220703 C-17.19754028 265.26364212 -17.19754028 265.26364212 -18.6862793 265.2651062 C-20.74755925 265.26578811 -22.80884133 265.26393306 -24.87011719 265.25976562 C-28.03715813 265.25441754 -31.20405725 265.25971025 -34.37109375 265.26611328 C-36.3684899 265.2654525 -38.36588596 265.26417134 -40.36328125 265.26220703 C-41.3174292 265.26423126 -42.27157715 265.26625549 -43.25463867 265.26834106 C-44.13224854 265.2651889 -45.0098584 265.26203674 -45.9140625 265.25878906 C-46.69048096 265.25799347 -47.46689941 265.25719788 -48.2668457 265.25637817 C-50.05078125 265.12939453 -50.05078125 265.12939453 -51.05078125 264.12939453 C-51.14868695 262.63201329 -51.18052989 261.12996561 -51.17578125 259.62939453 C-51.17835938 258.81470703 -51.1809375 258.00001953 -51.18359375 257.16064453 C-51.05078125 255.12939453 -51.05078125 255.12939453 -50.05078125 254.12939453 C-49.72744926 252.21210581 -49.46128867 250.28513162 -49.21875 248.35595703 C-49.06188721 247.14649414 -48.90502441 245.93703125 -48.7434082 244.69091797 C-48.57671631 243.39186523 -48.41002441 242.0928125 -48.23828125 240.75439453 C-47.05135591 231.74048169 -45.76278144 222.77543114 -43.86328125 213.87939453 C-43.61324341 212.70304443 -43.61324341 212.70304443 -43.3581543 211.50292969 C-42.19647893 206.27509221 -42.19647893 206.27509221 -41.05078125 205.12939453 C-40.78836748 203.4824572 -40.58298109 201.82635743 -40.40234375 200.16845703 C-40.28375 199.13849609 -40.16515625 198.10853516 -40.04296875 197.04736328 C-39.80257496 194.8914913 -39.56546791 192.73524967 -39.33203125 190.57861328 C-38.61301164 184.39045515 -37.46810331 178.6143285 -35.72851562 172.63476562 C-34.7801849 169.12908481 -34.3695928 165.74259909 -33.98828125 162.12939453 C-33.37640725 156.65237603 -32.60718658 151.25573166 -31.515625 145.85205078 C-31.1217999 143.54536089 -30.86221735 141.29189265 -30.63671875 138.96533203 C-30.08080982 133.77023706 -28.92291831 128.77412554 -27.73828125 123.69189453 C-25.49603509 113.79305881 -23.81753802 103.87091748 -22.39526367 93.82299805 C-21.79871321 89.67174485 -21.21299307 85.69050856 -20.046875 81.65673828 C-18.56667735 76.4150972 -18.00636734 71.08504613 -17.30078125 65.69189453 C-15.28185012 50.89524159 -12.53899828 36.27833145 -9.70849609 21.61962891 C-9.12792751 18.53877941 -8.58371594 15.45640086 -8.0703125 12.36376953 C-7.93568604 11.55383545 -7.80105957 10.74390137 -7.66235352 9.90942383 C-7.33161938 7.88102535 -7.01099136 5.8509857 -6.69140625 3.82080078 C-6.48 2.93263672 -6.26859375 2.04447266 -6.05078125 1.12939453 C-3.77643949 -0.00777635 -2.5249517 0.00273069 0 0 Z " fill="#FEFAFA" transform="translate(759.05078125,173.87060546875)"/>
<path d="M0 0 C1.14476303 -0.00945648 2.28952606 -0.01891296 3.46897888 -0.02865601 C4.70132767 -0.02258331 5.93367645 -0.01651062 7.20336914 -0.01025391 C9.10814781 -0.01455917 9.10814781 -0.01455917 11.05140686 -0.01895142 C13.73738256 -0.02099332 16.4225397 -0.01696364 19.10839844 -0.00292969 C22.54278713 0.01414519 25.97647156 0.00432921 29.41083431 -0.01364708 C32.69587076 -0.02712745 35.98082348 -0.01767333 39.26586914 -0.01025391 C40.4961937 -0.0163266 41.72651825 -0.02239929 42.99412537 -0.02865601 C44.14204056 -0.01919952 45.28995575 -0.00974304 46.47265625 0 C47.47985214 0.00238678 48.48704803 0.00477356 49.52476501 0.00723267 C52.73385979 0.44757596 54.65719352 1.56135616 57.30102539 3.38818359 C57.27073242 4.39792236 57.24043945 5.40766113 57.20922852 6.44799805 C57.09339843 10.34534844 56.98294167 14.24283851 56.8737793 18.14038086 C56.8266492 19.79894907 56.7782289 21.45748133 56.72827148 23.1159668 C56.42035028 33.37477027 56.28011265 43.620747 56.31030273 53.88427734 C56.32878825 67.72585268 56.15728042 81.56040751 55.93383789 95.39990234 C55.89442983 97.92568828 55.85511551 100.45147567 55.81588745 102.9772644 C55.70070168 110.32500928 55.58114377 117.6726763 55.45990753 125.02032328 C55.42593382 127.08123875 55.39211842 129.14215677 55.3583374 131.20307541 C54.80327273 165.02900495 54.24436502 198.85552925 53.35939789 232.67471695 C53.30113402 234.9464479 53.24643735 237.2182399 53.19268799 239.49008179 C53.09510778 243.58281248 52.9809499 247.67488015 52.86352539 251.76708984 C52.82290482 253.52809525 52.82290482 253.52809525 52.78146362 255.32467651 C52.73120529 256.89827438 52.73120529 256.89827438 52.67993164 258.50366211 C52.65487549 259.40729996 52.62981934 260.31093781 52.60400391 261.24195862 C52.30102539 263.38818359 52.30102539 263.38818359 50.30102539 265.38818359 C48.44152832 265.64888 48.44152832 265.64888 46.15844727 265.6628418 C45.30416138 265.67237381 44.44987549 265.68190582 43.56970215 265.69172668 C42.1837384 265.69035957 42.1837384 265.69035957 40.76977539 265.68896484 C39.8229187 265.69324997 38.87606201 265.6975351 37.9005127 265.70195007 C35.89649252 265.70769891 33.89245147 265.70818958 31.88842773 265.70385742 C28.81336087 265.70069627 25.73925452 265.72415386 22.66430664 265.74951172 C20.72029744 265.75178444 18.77628565 265.75248833 16.83227539 265.75146484 C15.90829956 265.76067459 14.98432373 265.76988434 14.03234863 265.77937317 C12.7509198 265.77002998 12.7509198 265.77002998 11.44360352 265.76049805 C10.31347839 265.76144218 10.31347839 265.76144218 9.16052246 265.7624054 C7.30102539 265.38818359 7.30102539 265.38818359 5.30102539 262.38818359 C5.19781497 259.34366263 5.21106504 256.4022974 5.32446289 253.36474609 C5.34948883 252.46758881 5.37451477 251.57043152 5.40029907 250.64608765 C5.48246942 247.76806722 5.57877519 244.89073035 5.67602539 242.01318359 C5.76296849 239.17932149 5.84697726 236.34538607 5.93023682 233.51141357 C5.98468859 231.66472983 6.04063575 229.81808956 6.0980835 227.97149658 C6.24317519 223.15631374 6.32072519 218.35461115 6.27758789 213.53662109 C6.2447224 208.98885231 6.46453261 204.50519428 6.78491211 199.96899414 C7.31663709 191.96276186 7.5002763 183.96994718 7.58227539 175.94677734 C7.60015482 174.50435906 7.61844107 173.06194576 7.63710022 171.61953735 C7.67577375 168.58379182 7.71226111 165.54803227 7.74685669 162.51223755 C7.82832125 155.38756361 7.92183041 148.26304448 8.01571846 141.13852501 C8.03665001 139.54992522 8.05745667 137.96132378 8.07813835 136.37272072 C8.26943627 121.73041428 8.53683804 107.09065406 8.86352539 92.45068359 C8.88576172 91.45092499 8.90799805 90.45116638 8.9309082 89.42111206 C9.05050695 84.07671051 9.17373324 78.73240727 9.30102539 73.38818359 C6.35485585 81.24338588 3.81822091 89.1406756 1.50219727 97.20068359 C0.39978815 100.96700438 -0.72992056 104.62082836 -2.32006836 108.21240234 C-3.7612839 111.53168912 -4.45150949 114.54580349 -5.07397461 118.07958984 C-5.69897461 120.38818359 -5.69897461 120.38818359 -7.15600586 123.26708984 C-8.72927966 126.44948419 -9.5629054 129.31624513 -10.38647461 132.76318359 C-12.17623412 139.89724824 -14.4254959 146.85335851 -16.76147461 153.82568359 C-17.10202881 154.84388184 -17.44258301 155.86208008 -17.79345703 156.91113281 C-19.21681013 161.12957866 -20.65744703 165.33093793 -22.25756836 169.48583984 C-23.99297123 174.04397755 -25.3372948 178.70740926 -26.69897461 183.38818359 C-28.26182837 188.76049339 -29.89142524 194.04585805 -31.90454102 199.26708984 C-33.52588361 203.59598489 -34.93661496 207.99956862 -36.38647461 212.38818359 C-37.47959961 215.68818359 -38.57272461 218.98818359 -39.69897461 222.38818359 C-29.46897461 222.71818359 -19.23897461 223.04818359 -8.69897461 223.38818359 C-8.36897461 224.70818359 -8.03897461 226.02818359 -7.69897461 227.38818359 C-8.02897461 227.71818359 -8.35897461 228.04818359 -8.69897461 228.38818359 C-8.96109387 229.93839966 -9.16663051 231.49826656 -9.34741211 233.06005859 C-9.46415283 234.02927246 -9.58089355 234.99848633 -9.70117188 235.99707031 C-9.82419678 237.0336377 -9.94722168 238.07020508 -10.07397461 239.13818359 C-12.40628452 257.83421086 -12.40628452 257.83421086 -14.69897461 264.38818359 C-17.70403291 265.89071275 -20.79154394 265.51811119 -24.08618164 265.50170898 C-24.8472522 265.50185501 -25.60832275 265.50200104 -26.39245605 265.50215149 C-28.9139285 265.50145352 -31.43532753 265.49366654 -33.95678711 265.48583984 C-35.70270752 265.48397525 -37.44862844 265.48255154 -39.19454956 265.48155212 C-43.79442789 265.47773018 -48.39427475 265.46790264 -52.99414062 265.45684814 C-57.68611221 265.44662709 -62.37808886 265.44205301 -67.07006836 265.43701172 C-76.27971762 265.4262801 -85.4893435 265.40920754 -94.69897461 265.38818359 C-95.94016302 260.38793183 -94.8728625 257.00415239 -93.14819336 252.27099609 C-92.58385608 250.65449106 -92.0205763 249.03761652 -91.45825195 247.42041016 C-91.01929596 246.17354431 -91.01929596 246.17354431 -90.57147217 244.90148926 C-89.18043722 240.89449122 -87.88775511 236.85695617 -86.59350586 232.81787109 C-86.08005563 231.22665372 -85.56638353 229.63550793 -85.05249023 228.04443359 C-84.27512593 225.63354209 -83.49837354 223.22245713 -82.72265625 220.81103516 C-81.95210192 218.41694077 -81.17920343 216.0236129 -80.40600586 213.63037109 C-80.17782669 212.91879852 -79.94964752 212.20722595 -79.71455383 211.47409058 C-78.37431896 207.33132398 -76.92163386 203.2489186 -75.37449646 199.1789856 C-74.55014461 196.99363667 -73.79012656 194.79105712 -73.05053711 192.57568359 C-72.76984375 191.73545654 -72.48915039 190.89522949 -72.19995117 190.02954102 C-71.91087891 189.15789307 -71.62180664 188.28624512 -71.32397461 187.38818359 C-71.01943359 186.47335205 -70.71489258 185.55852051 -70.40112305 184.6159668 C-68.12459893 177.74749485 -65.94667215 170.85333079 -63.83959961 163.93115234 C-62.80989131 160.7327091 -61.67071196 157.61288957 -60.4753418 154.47485352 C-59.12023273 150.8326783 -57.91536117 147.14102303 -56.69897461 143.45068359 C-56.19897461 141.94156901 -55.69897461 140.43245443 -55.19897461 138.92333984 C-54.98241211 138.2672876 -54.76584961 137.61123535 -54.54272461 136.93530273 C-53.79168378 134.66805478 -53.03687174 132.40211721 -52.28100586 130.13647461 C-51.05031646 126.44599405 -49.82639616 122.75333798 -48.60644531 119.05929565 C-47.57676498 115.94306364 -46.54364188 112.82797581 -45.51049805 109.71289062 C-44.96841341 108.07652562 -44.42740176 106.43980479 -43.88745117 104.80273438 C-43.0983316 102.41098469 -42.30527168 100.02057182 -41.51147461 97.63037109 C-41.27388428 96.90727753 -41.03629395 96.18418396 -40.79150391 95.43917847 C-39.30429222 90.97656805 -37.57547259 86.70102238 -35.69897461 82.38818359 C-35.03470557 80.23323207 -34.40984548 78.06575673 -33.82397461 75.88818359 C-32.04077705 69.46181394 -30.00270331 63.16884179 -27.84741211 56.86083984 C-27.07960829 54.53914735 -26.36472539 52.19930501 -25.70288086 49.84521484 C-24.72426432 46.47527074 -23.55380776 43.27421116 -22.26147461 40.01318359 C-19.52916261 33.10959905 -17.23172139 26.10391117 -15.01538086 19.02099609 C-14.43085154 17.18502481 -13.84621522 15.34908759 -13.26147461 13.51318359 C-12.9746582 12.57732422 -12.6878418 11.64146484 -12.39233398 10.67724609 C-12.10293945 9.78005859 -11.81354492 8.88287109 -11.51538086 7.95849609 C-11.13555054 6.74830811 -11.13555054 6.74830811 -10.74804688 5.51367188 C-8.39529264 0.74683959 -5.03106305 0.01193167 0 0 Z " fill="#FDF9F9" transform="translate(489.698974609375,173.61181640625)"/>
<path d="M0 0 C11.21306864 8.78323849 15.97283542 18.51925011 17.99121094 32.62255859 C18.88479081 41.6443591 17.73709079 50.31454813 16.32421875 59.22265625 C16.15019531 60.36863281 15.97617187 61.51460938 15.796875 62.6953125 C14.71736365 69.72413085 13.58244727 76.74637328 12.19921875 83.72265625 C12.09754395 84.44259766 11.99586914 85.16253906 11.89111328 85.90429688 C11.19921875 87.72265625 11.19921875 87.72265625 9.67407227 88.95385742 C6.01375491 90.09091369 2.39789274 90.02775631 -1.3984375 90.0234375 C-2.64444984 90.02986519 -2.64444984 90.02986519 -3.91563416 90.03642273 C-5.66811208 90.04215574 -7.42061379 90.04267388 -9.1730957 90.03833008 C-11.85734389 90.03516325 -14.54049684 90.05866488 -17.22460938 90.08398438 C-18.92838403 90.08625676 -20.63216164 90.08696115 -22.3359375 90.0859375 C-23.54069481 90.09975212 -23.54069481 90.09975212 -24.76979065 90.11384583 C-30.25843823 90.06811911 -30.25843823 90.06811911 -32.84594727 88.41992188 C-34.55171567 85.3878324 -33.36791389 82.14795344 -32.67578125 78.91015625 C-32.52906982 78.14896484 -32.3823584 77.38777344 -32.23120117 76.60351562 C-31.54031502 73.07502185 -30.76659279 69.58119199 -29.921875 66.0859375 C-27.69401867 56.81934667 -27.49140999 48.18712515 -27.80078125 38.72265625 C-28.46078125 38.72265625 -29.12078125 38.72265625 -29.80078125 38.72265625 C-30.33832031 38.07167969 -30.87585938 37.42070312 -31.4296875 36.75 C-34.70395862 33.95041728 -37.63449603 34.16918784 -41.73828125 34.28515625 C-42.44146484 34.27806641 -43.14464844 34.27097656 -43.86914062 34.26367188 C-48.35502128 34.31832647 -51.22855971 35.00252425 -54.80078125 37.72265625 C-59.66885329 43.16344265 -62.1073563 47.96677176 -63.42578125 55.16015625 C-63.66554688 56.43761719 -63.9053125 57.71507812 -64.15234375 59.03125 C-64.88221651 63.18624855 -65.58811644 67.34226831 -66.23046875 71.51171875 C-67.00446113 76.4408281 -67.897824 81.22775723 -69.23828125 86.03515625 C-71.02974354 92.8769218 -71.81623921 99.82195488 -72.62280273 106.83520508 C-73.40744068 113.43957549 -74.59478353 119.89198166 -75.93554688 126.4050293 C-77.53210629 134.25366658 -78.88328018 142.15058098 -80.28027344 150.03662109 C-80.79757362 152.95456292 -81.31854181 155.87183328 -81.83984375 158.7890625 C-83.46406695 167.91198584 -85.04602272 177.03965012 -86.5 186.19140625 C-86.62088989 186.94915344 -86.74177979 187.70690063 -86.86633301 188.48760986 C-89.48273418 201.8472566 -89.48273418 201.8472566 -86.80078125 214.72265625 C-82.18571532 218.58933311 -76.61473698 218.16076413 -70.86328125 218.00390625 C-65.63501721 217.52375955 -63.01934832 215.85205988 -59.23828125 212.34765625 C-52.76063384 203.84313206 -51.14056868 193.24038116 -50.04541016 182.91064453 C-49.56661981 178.62829017 -48.96812711 174.36371698 -48.36328125 170.09765625 C-48.25290527 169.24421631 -48.1425293 168.39077637 -48.02880859 167.51147461 C-47.91359863 166.70202393 -47.79838867 165.89257324 -47.6796875 165.05859375 C-47.58244385 164.3423584 -47.4852002 163.62612305 -47.38500977 162.88818359 C-46.56929422 159.86461616 -45.90488417 158.10005924 -43.80078125 155.72265625 C-40.82729945 154.98836969 -37.91126681 155.09402686 -34.86328125 155.1640625 C-33.54855835 155.16755959 -33.54855835 155.16755959 -32.20727539 155.17112732 C-30.35455593 155.18086882 -28.50186646 155.20266536 -26.64941406 155.2355957 C-23.81140118 155.28497148 -20.97512218 155.29707332 -18.13671875 155.30273438 C-16.33722112 155.31682174 -14.53773856 155.33302663 -12.73828125 155.3515625 C-11.46319702 155.35960655 -11.46319702 155.35960655 -10.16235352 155.36781311 C-6.22567817 155.44738773 -4.14579094 155.49264979 -0.80078125 157.72265625 C-1.25654653 160.45724794 -1.7129876 163.19171084 -2.171875 165.92578125 C-2.61166103 168.580887 -3.0416869 171.23622613 -3.4609375 173.89453125 C-5.06590959 183.9627952 -6.97494852 193.92162886 -9.34960938 203.83837891 C-9.72477663 205.40523002 -10.08500111 206.97564992 -10.44140625 208.546875 C-14.40540617 223.92007983 -25.91064442 241.71006814 -39.37890625 250.3828125 C-50.22527614 256.07557096 -58.53578951 259.6615444 -70.8046875 260.44140625 C-73.84971393 260.61331248 -73.84971393 260.61331248 -76.80078125 261.72265625 C-79.15339482 261.81776786 -81.50875092 261.85252601 -83.86328125 261.84765625 C-85.11238281 261.85023438 -86.36148438 261.8528125 -87.6484375 261.85546875 C-90.80078125 261.72265625 -90.80078125 261.72265625 -92.80078125 260.72265625 C-95.21734574 260.37867159 -97.62691756 260.06662219 -100.05078125 259.78515625 C-104.89606533 259.21540447 -109.22123706 258.42220759 -113.80078125 256.72265625 C-113.80078125 256.06265625 -113.80078125 255.40265625 -113.80078125 254.72265625 C-114.46078125 254.53703125 -115.12078125 254.35140625 -115.80078125 254.16015625 C-125.04009805 249.73298362 -129.94413255 241.99945989 -133.80078125 232.72265625 C-135.96412797 225.80468277 -136.18611627 218.92616801 -136.17578125 211.72265625 C-136.17489502 210.59706299 -136.17400879 209.47146973 -136.1730957 208.31176758 C-135.97829489 194.10712986 -133.62966717 180.2294207 -130.296875 166.4453125 C-128.58888584 159.18135732 -127.61446481 151.86948271 -126.67578125 144.47265625 C-126.34492743 141.883393 -126.00787589 139.29514312 -125.66796875 136.70703125 C-125.52472168 135.58006836 -125.38147461 134.45310547 -125.23388672 133.29199219 C-124.80078125 130.72265625 -124.80078125 130.72265625 -123.80078125 129.72265625 C-123.56052744 127.86712456 -123.32530885 126.01082401 -123.11328125 124.15185547 C-122.41337825 118.71120321 -121.28370187 113.33098776 -120.26171875 107.94335938 C-119.3148479 102.85922822 -118.55752311 97.82214283 -118.03369141 92.67797852 C-117.72759104 90.10821136 -117.14039127 87.66294724 -116.48828125 85.16015625 C-115.45104641 80.91243261 -114.623282 76.72258576 -113.99609375 72.39453125 C-112.41854924 61.57669751 -110.36407786 51.24388738 -106.92578125 40.84765625 C-106.61036377 39.88045654 -106.29494629 38.91325684 -105.9699707 37.91674805 C-102.99738056 29.33580659 -98.64243422 21.75394607 -93.05078125 14.59765625 C-92.19226563 13.48003906 -92.19226563 13.48003906 -91.31640625 12.33984375 C-90.81625 11.80617187 -90.31609375 11.2725 -89.80078125 10.72265625 C-89.14078125 10.72265625 -88.48078125 10.72265625 -87.80078125 10.72265625 C-87.56359375 10.13355469 -87.32640625 9.54445312 -87.08203125 8.9375 C-82.95944572 1.81095734 -71.53061859 -3.59615931 -63.81542969 -5.85986328 C-42.91334988 -11.40158457 -18.59424408 -13.20742991 0 0 Z " fill="#FDFAFA" transform="translate(247.80078125,180.27734375)"/>
<path d="M0 0 C0.66 0.33 1.32 0.66 2 1 C2.66 0.67 3.32 0.34 4 0 C7.5625 -0.125 7.5625 -0.125 11 0 C12 1 12 1 12.09765625 4.16015625 C12.08605469 5.44792969 12.07445312 6.73570312 12.0625 8.0625 C12.05347656 9.35285156 12.04445313 10.64320313 12.03515625 11.97265625 C12.02355469 12.97167969 12.01195312 13.97070312 12 15 C12.66 15 13.32 15 14 15 C14 23.91 14 32.82 14 42 C13.34 42 12.68 42 12 42 C11.95875 43.051875 11.9175 44.10375 11.875 45.1875 C10.7098454 50.26424506 9.26635766 51.15576156 5 54 C0.39688888 55.93033692 -4.6766583 55.50897758 -9.25 53.75 C-12.00061565 51.99960822 -13.5449591 50.91008181 -15 48 C-14.875 45.375 -14.875 45.375 -14 43 C-13.01 42.34 -12.02 41.68 -11 41 C-11.9590625 39.948125 -11.9590625 39.948125 -12.9375 38.875 C-16.70978689 33.6166607 -16.1822808 27.37760029 -16.1875 21.125 C-16.19974609 20.36058594 -16.21199219 19.59617187 -16.22460938 18.80859375 C-16.24028284 12.65414621 -15.99270795 6.41540358 -11.9375 1.5 C-7.93740434 -0.54260204 -4.4160905 -0.52923678 0 0 Z M-3 10 C-4.21643292 10.99483202 -4.21643292 10.99483202 -4.11352539 12.94946289 C-4.10828857 13.7821167 -4.10305176 14.61477051 -4.09765625 15.47265625 C-4.09443359 16.37177734 -4.09121094 17.27089844 -4.08789062 18.19726562 C-4.07951172 19.14279297 -4.07113281 20.08832031 -4.0625 21.0625 C-4.05798828 22.01189453 -4.05347656 22.96128906 -4.04882812 23.93945312 C-4.0370011 26.29303065 -4.02052025 28.64648477 -4 31 C-2.05396726 31.59070014 -2.05396726 31.59070014 0 32 C1.20495909 31.01592689 1.20495909 31.01592689 1.11352539 29.14233398 C1.10828857 28.35157471 1.10305176 27.56081543 1.09765625 26.74609375 C1.09443359 25.89208984 1.09121094 25.03808594 1.08789062 24.15820312 C1.07951172 23.26037109 1.07113281 22.36253906 1.0625 21.4375 C1.05798828 20.53580078 1.05347656 19.63410156 1.04882812 18.70507812 C1.03700225 16.46998686 1.0205222 14.23502563 1 12 C-0.32 11.34 -1.64 10.68 -3 10 Z M-5 43 C-5 43.33 -5 43.66 -5 44 C-3.35 44 -1.7 44 0 44 C0.66 42.68 1.32 41.36 2 40 C-0.37220987 40 -2.92877733 41.94235438 -5 43 Z " fill="#FBF8F8" transform="translate(718,459)"/>
<path d="M0 0 C0.86818359 -0.020625 1.73636719 -0.04125 2.63085938 -0.0625 C3.47068359 -0.06765625 4.31050781 -0.0728125 5.17578125 -0.078125 C5.94446533 -0.0874707 6.71314941 -0.09681641 7.50512695 -0.10644531 C10.53712576 0.38876872 11.67324392 0.87641683 13.6875 3.25 C14.28698379 6.34771773 14.22341897 9.40833468 14.18359375 12.5546875 C14.18504898 13.47081818 14.18650421 14.38694885 14.18800354 15.33084106 C14.18634335 17.2692584 14.1747687 19.20768875 14.15405273 21.14599609 C14.12517536 24.10701846 14.13342576 27.06624208 14.14648438 30.02734375 C14.14024449 31.91146701 14.13185161 33.79558462 14.12109375 35.6796875 C14.12402939 36.56316864 14.12696503 37.44664978 14.12998962 38.35690308 C14.05713231 43.12904249 13.81751781 46.39972371 10.6875 50.25 C5.88837239 53.84934571 1.99775444 55.73941889 -4.10546875 55.66015625 C-8.34233698 54.87277366 -11.51045303 52.45130237 -14.3125 49.25 C-15.13627719 45.04873631 -14.69408405 43.82237608 -12.3125 40.25 C-12.786875 39.445625 -13.26125 38.64125 -13.75 37.8125 C-16.83423812 30.78043709 -16.47613132 23.56909426 -15.625 16.0625 C-15.55861328 15.29486328 -15.49222656 14.52722656 -15.42382812 13.73632812 C-14.2507419 2.95686652 -10.25432744 0.06009862 0 0 Z M-2.3125 10.25 C-3.52893292 11.24483202 -3.52893292 11.24483202 -3.42602539 13.19946289 C-3.42078857 14.0321167 -3.41555176 14.86477051 -3.41015625 15.72265625 C-3.40693359 16.62177734 -3.40371094 17.52089844 -3.40039062 18.44726562 C-3.39201172 19.39279297 -3.38363281 20.33832031 -3.375 21.3125 C-3.37048828 22.26189453 -3.36597656 23.21128906 -3.36132812 24.18945312 C-3.3495011 26.54303065 -3.33302025 28.89648477 -3.3125 31.25 C-1.6625 31.58 -0.0125 31.91 1.6875 32.25 C1.71645225 28.95835171 1.7342823 25.66673601 1.75 22.375 C1.75837891 21.43785156 1.76675781 20.50070312 1.77539062 19.53515625 C1.77861328 18.63925781 1.78183594 17.74335938 1.78515625 16.8203125 C1.79039307 15.99289551 1.79562988 15.16547852 1.80102539 14.31298828 C1.82102138 12.18588243 1.82102138 12.18588243 0.6875 10.25 C-0.3025 10.25 -1.2925 10.25 -2.3125 10.25 Z M-9.3125 41.25 C-6.5935573 44.59814093 -6.5935573 44.59814093 -2.75 44.625 C-1.615625 44.50125 -0.48125 44.3775 0.6875 44.25 C1.3475 43.26 2.0075 42.27 2.6875 41.25 C-1.2725 41.25 -5.2325 41.25 -9.3125 41.25 Z " fill="#FCF9F9" transform="translate(835.3125,458.75)"/>
<path d="M0 0 C0.78375 0.2475 1.5675 0.495 2.375 0.75 C2.705 1.41 3.035 2.07 3.375 2.75 C4.1175 2.234375 4.86 1.71875 5.625 1.1875 C8.375 -0.25 8.375 -0.25 10.625 0 C12.375 0.75 12.375 0.75 13.375 1.75 C13.68546812 6.9244687 12.95955205 10.89730934 11.375 15.75 C13.025 16.08 14.675 16.41 16.375 16.75 C17.375 19.75 17.375 19.75 16.1875 22.375 C14.375 24.75 14.375 24.75 12.1875 25.5625 C11.589375 25.624375 10.99125 25.68625 10.375 25.75 C10.375 26.41 10.375 27.07 10.375 27.75 C11.179375 28.059375 11.98375 28.36875 12.8125 28.6875 C15.375 29.75 15.375 29.75 16.375 30.75 C16.5625 33.1875 16.5625 33.1875 16.375 35.75 C14.2364515 37.8885485 13.24224686 38.17655063 10.375 38.75 C10.33761719 39.49765625 10.30023437 40.2453125 10.26171875 41.015625 C10.19597656 42.00046875 10.13023437 42.9853125 10.0625 44 C10.00449219 44.97453125 9.94648437 45.9490625 9.88671875 46.953125 C9.31971493 50.05216879 8.58158926 51.5224952 6.375 53.75 C3.3125 54.125 3.3125 54.125 0.375 53.75 C-0.285 53.09 -0.945 52.43 -1.625 51.75 C-2.615 52.41 -3.605 53.07 -4.625 53.75 C-7.1875 54 -7.1875 54 -9.625 53.75 C-11.625 51.75 -11.625 51.75 -11.63671875 49.25390625 C-11.52972656 48.28324219 -11.42273438 47.31257813 -11.3125 46.3125 C-11.21324219 45.34441406 -11.11398437 44.37632812 -11.01171875 43.37890625 C-10.625 40.75 -10.625 40.75 -9.625 37.75 C-10.264375 37.605625 -10.90375 37.46125 -11.5625 37.3125 C-13.625 36.75 -13.625 36.75 -14.625 35.75 C-14.9375 33.375 -14.9375 33.375 -14.625 30.75 C-12.625 28.9375 -12.625 28.9375 -10.625 27.75 C-11.84507944 25.0594472 -11.84507944 25.0594472 -13.625 22.75 C-13.875 20.3125 -13.875 20.3125 -13.625 17.75 C-10.625 15.75 -10.625 15.75 -7.625 15.75 C-7.51542969 14.76257813 -7.40585937 13.77515625 -7.29296875 12.7578125 C-7.13441406 11.47648437 -6.97585938 10.19515625 -6.8125 8.875 C-6.66167969 7.59882813 -6.51085937 6.32265625 -6.35546875 5.0078125 C-5.44192559 0.93350773 -4.29381559 -0.40893482 0 0 Z M2.375 7.75 C3.375 10.75 3.375 10.75 3.375 10.75 Z " fill="#FDF9F9" transform="translate(553.625,447.25)"/>
<path d="M0 0 C1.32644531 0.20496094 1.32644531 0.20496094 2.6796875 0.4140625 C4.30037539 0.65364245 5.92516631 0.86968575 7.5546875 1.0390625 C7.8846875 0.7090625 8.2146875 0.3790625 8.5546875 0.0390625 C15.62715127 -0.42470562 15.62715127 -0.42470562 18.9296875 1.2265625 C25.22472264 8.24794784 24.13572792 20.12815357 23.74267578 29.00244141 C23.34196837 33.34361178 22.08355771 37.47210668 19.5546875 41.0390625 C16.58210411 43.01674043 15.63612444 43.04608293 11.9296875 42.7265625 C8.5546875 42.0390625 8.5546875 42.0390625 6.5546875 41.0390625 C6.49410156 41.96589844 6.43351563 42.89273438 6.37109375 43.84765625 C6.28730469 45.04519531 6.20351563 46.24273437 6.1171875 47.4765625 C6.03597656 48.67152344 5.95476563 49.86648438 5.87109375 51.09765625 C5.5546875 54.0390625 5.5546875 54.0390625 4.5546875 55.0390625 C-3.04876078 54.43561422 -3.04876078 54.43561422 -5.4453125 52.0390625 C-5.70600891 49.95851135 -5.70600891 49.95851135 -5.7199707 47.36157227 C-5.72950272 46.39038956 -5.73903473 45.41920685 -5.74885559 44.41859436 C-5.74794418 43.36651291 -5.74703278 42.31443146 -5.74609375 41.23046875 C-5.75037888 40.15280746 -5.754664 39.07514618 -5.75907898 37.96482849 C-5.76482976 35.68253279 -5.76531707 33.40021876 -5.76098633 31.11791992 C-5.75782852 27.61931169 -5.78126952 24.12155033 -5.80664062 20.62304688 C-5.80891369 18.40885524 -5.80961708 16.19466132 -5.80859375 13.98046875 C-5.8178035 12.93041153 -5.82701324 11.88035431 -5.83650208 10.79847717 C-5.83027328 9.8241423 -5.82404449 8.84980743 -5.81762695 7.84594727 C-5.81825638 6.98816177 -5.8188858 6.13037628 -5.8195343 5.24659729 C-5.20600555 1.62739055 -3.67398808 0.05868991 0 0 Z M7.4453125 10.96484375 C4.40716074 14.29802264 5.13041067 17.89310197 5.3046875 22.2265625 C5.32273437 23.07154297 5.34078125 23.91652344 5.359375 24.78710938 C5.40648164 26.87157823 5.47822517 28.95546394 5.5546875 31.0390625 C7.5346875 31.3690625 9.5146875 31.6990625 11.5546875 32.0390625 C11.5546875 24.7790625 11.5546875 17.5190625 11.5546875 10.0390625 C9.47598548 9.90510049 9.47598548 9.90510049 7.4453125 10.96484375 Z " fill="#F9F6F6" transform="translate(674.4453125,458.9609375)"/>
<path d="M0 0 C1.19231274 3.57693822 1.1461202 6.84182553 1.125 10.5625 C1.12886719 11.24763672 1.13273438 11.93277344 1.13671875 12.63867188 C1.12669335 17.7466133 1.12669335 17.7466133 0 20 C0.66 20 1.32 20 2 20 C2.268125 19.2575 2.53625 18.515 2.8125 17.75 C4.87155963 12.98165138 4.87155963 12.98165138 7 11 C12.95522388 10.47761194 12.95522388 10.47761194 16 12 C15.69934051 16.71033209 14.85880377 19.41657508 12.25 23.375 C10.35719311 26.57630705 10.35719311 26.57630705 10.19921875 30.1875 C10.99389309 32.54209063 11.95816576 34.74391529 13 37 C13.74613855 38.93102759 14.47506302 40.86878607 15.1875 42.8125 C15.53167969 43.70582031 15.87585938 44.59914063 16.23046875 45.51953125 C17 48 17 48 17 52 C14.49057831 53.64077572 13.03631467 54 10 54 C5.88264682 52.62754894 4.94359108 50.8151973 3 47 C2.25 43.625 2.25 43.625 2 41 C1.34 41 0.68 41 0 41 C0 44.63 0 48.26 0 52 C-1.60875 52.04125 -3.2175 52.0825 -4.875 52.125 C-5.77992188 52.14820313 -6.68484375 52.17140625 -7.6171875 52.1953125 C-10 52 -10 52 -12 50 C-12.20927429 47.95741272 -12.20927429 47.95741272 -12.15112305 45.41430664 C-12.13417892 44.46314468 -12.1172348 43.51198273 -12.09977722 42.53199768 C-12.07071793 41.50179001 -12.04165863 40.47158234 -12.01171875 39.41015625 C-11.98906448 38.35469101 -11.96641022 37.29922577 -11.94306946 36.21177673 C-11.89304609 33.97643947 -11.83807101 31.74120843 -11.77856445 29.50610352 C-11.68797353 26.08040672 -11.61318874 22.65464488 -11.54101562 19.22851562 C-11.49051689 17.05987389 -11.43911469 14.89125297 -11.38671875 12.72265625 C-11.36373215 11.69447281 -11.34074554 10.66628937 -11.31706238 9.60694885 C-11.29066177 8.65263474 -11.26426117 7.69832062 -11.23706055 6.71508789 C-11.21548386 5.87506729 -11.19390717 5.03504669 -11.17167664 4.16957092 C-11 2 -11 2 -10 -1 C-6.38083481 -2.74256102 -3.5175182 -1.56334142 0 0 Z M0 21 C1 23 1 23 1 23 Z " fill="#FDFAFA" transform="translate(584,448)"/>
<path d="M0 0 C1.010625 -0.03287109 2.02125 -0.06574219 3.0625 -0.09960938 C5.79559827 -0.11959879 8.31257494 -0.06118246 11 0.4375 C17.19353781 6.55206738 15.04423781 20.30096282 15.11254883 28.58569336 C15.11665771 29.48553955 15.1207666 30.38538574 15.125 31.3125 C15.12975342 32.19881104 15.13450684 33.08512207 15.1394043 33.99829102 C15.1227087 40.3147913 15.1227087 40.3147913 14 41.4375 C11.78515625 41.640625 11.78515625 41.640625 9.0625 41.6875 C8.16660156 41.71328125 7.27070312 41.7390625 6.34765625 41.765625 C5.57292969 41.65734375 4.79820312 41.5490625 4 41.4375 C1.70244078 37.99116118 1.76356024 36.72681609 1.8046875 32.67578125 C1.81113281 31.55751953 1.81757812 30.43925781 1.82421875 29.28710938 C1.84097656 28.11986328 1.85773437 26.95261719 1.875 25.75 C1.88402344 24.57115234 1.89304687 23.39230469 1.90234375 22.17773438 C1.92593577 19.26411974 1.9588546 16.35091108 2 13.4375 C1.01 13.7675 0.02 14.0975 -1 14.4375 C-1.02505615 15.21988037 -1.0501123 16.00226074 -1.07592773 16.80834961 C-1.19149788 20.33074949 -1.31439949 23.8528556 -1.4375 27.375 C-1.47681641 28.60669922 -1.51613281 29.83839844 -1.55664062 31.10742188 C-1.59853516 32.27724609 -1.64042969 33.44707031 -1.68359375 34.65234375 C-1.73858032 36.27837524 -1.73858032 36.27837524 -1.79467773 37.93725586 C-2 40.4375 -2 40.4375 -3 41.4375 C-4.68608966 41.50955511 -6.37500659 41.52136068 -8.0625 41.5 C-8.98160156 41.49097656 -9.90070312 41.48195313 -10.84765625 41.47265625 C-11.55792969 41.46105469 -12.26820313 41.44945312 -13 41.4375 C-14.63658144 38.55635453 -15.24929977 36.50572399 -15.23046875 33.19921875 C-15.22942139 32.38565918 -15.22837402 31.57209961 -15.22729492 30.73388672 C-15.2141626 29.8729541 -15.20103027 29.01202148 -15.1875 28.125 C-15.17887939 27.24086426 -15.17025879 26.35672852 -15.16137695 25.44580078 C-15.12550199 22.77564378 -15.06817917 20.10701528 -15 17.4375 C-14.98066406 16.65552246 -14.96132813 15.87354492 -14.94140625 15.06787109 C-14.87876957 12.98105652 -14.79060268 10.8976672 -14.6875 8.8125 C-14.62949219 7.62398438 -14.57148437 6.43546875 -14.51171875 5.2109375 C-14.25841797 3.83808594 -14.25841797 3.83808594 -14 2.4375 C-9.5298381 -0.54260793 -5.26061838 0.03019488 0 0 Z " fill="#FEFBFB" transform="translate(801,458.5625)"/>
<path d="M0 0 C0 0.66 0 1.32 0 2 C0.99 2.33 1.98 2.66 3 3 C6.20529514 8.57958784 6.65567741 13.6367045 6 20 C5 23.125 5 23.125 4 25 C4.66 25.66 5.32 26.32 6 27 C5.73285595 31.71954482 5.05525932 35.33368881 2 39 C-2.77025217 41.66033294 -6.57072543 42.66675302 -12 42 C-16.84826062 40.55098978 -19.70114719 38.902822 -22.2109375 34.44140625 C-24.39359746 29.75690623 -24.56372163 25.53929692 -24.4375 20.4375 C-24.44458984 19.62603516 -24.45167969 18.81457031 -24.45898438 17.97851562 C-24.38809466 11.22218042 -23.00023331 6.48677655 -18.6875 1.125 C-12.73729855 -3.57981045 -6.84501292 -1.63685092 0 0 Z M-9 8 C-9.99 8.495 -9.99 8.495 -11 9 C-11 10.98 -11 12.96 -11 15 C-9.01508358 14.73323796 -9.01508358 14.73323796 -7 14 C-6.67 13.01 -6.34 12.02 -6 11 C-6.99 10.01 -7.98 9.02 -9 8 Z M-11 24 C-12.29633621 25.06645115 -12.29633621 25.06645115 -12.0625 27.5625 C-12.041875 28.366875 -12.02125 29.17125 -12 30 C-10.02 30.99 -10.02 30.99 -8 32 C-7.566875 30.5459375 -7.566875 30.5459375 -7.125 29.0625 C-6 26 -6 26 -4 25 C-6.3260857 24.61936779 -8.66055264 24.28730055 -11 24 Z " fill="#FCF9F9" transform="translate(626,460)"/>
<path d="M0 0 C4.13295548 5.11181336 5.14486286 9.12285042 5.25 15.5625 C5.27578125 16.51253906 5.3015625 17.46257812 5.328125 18.44140625 C4.95193763 21.37477202 4.28811367 22.21165852 2 24 C2.99 24.66 3.98 25.32 5 26 C4.71734028 30.71099535 4.0120064 34.22253925 0.70703125 37.765625 C-2.83198539 40.32473085 -6.70342712 40.91725119 -11 41 C-15.37668937 40.28063631 -18.83562701 39.16437299 -22 36 C-24.65094624 30.69810751 -24.22138109 25.48640576 -24.25 19.6875 C-24.270625 18.65431641 -24.29125 17.62113281 -24.3125 16.55664062 C-24.34811792 9.61559786 -23.73359371 4.97479316 -18.875 -0.3125 C-12.52409746 -4.04020366 -6.31174011 -3.83654791 0 0 Z M-11 8 C-11.33 9.65 -11.66 11.3 -12 13 C-10.35 12.67 -8.7 12.34 -7 12 C-7.33 10.68 -7.66 9.36 -8 8 C-8.99 8 -9.98 8 -11 8 Z M-12 23 C-12 25.31 -12 27.62 -12 30 C-10.35 29.67 -8.7 29.34 -7 29 C-6.67 28.01 -6.34 27.02 -6 26 C-5.34 25.34 -4.68 24.68 -4 24 C-5.18424326 22.58422523 -5.18424326 22.58422523 -8.5625 22.9375 C-10.2640625 22.9684375 -10.2640625 22.9684375 -12 23 Z " fill="#FAF6F6" transform="translate(660,461)"/>
<path d="M0 0 C3.1875 2.375 3.1875 2.375 5 5 C5.66 5.66 6.32 6.32 7 7 C8.39621469 13.01952938 8.17291851 19.58648019 8.3125 25.75 C8.34230957 26.4706665 8.37211914 27.19133301 8.40283203 27.93383789 C8.45936413 33.13900119 7.2945568 36.01059122 4 40 C-0.75742714 43.31913522 -5.37084811 43.87332542 -11 43 C-15.48194028 41.43706698 -18.33910416 39.99134375 -21 36 C-23.51451685 26.83883032 -23.39042027 13.79526786 -19.08203125 5.16015625 C-14.87010307 -1.69834749 -7.29399976 -0.84196735 0 0 Z M-11 12 C-11.41480107 14.02887311 -11.41480107 14.02887311 -11.29296875 16.3515625 C-11.28330078 17.20234375 -11.27363281 18.053125 -11.26367188 18.9296875 C-11.23853516 19.81914062 -11.21339844 20.70859375 -11.1875 21.625 C-11.17396484 22.5221875 -11.16042969 23.419375 -11.14648438 24.34375 C-11.11106925 26.56309789 -11.06168461 28.78125188 -11 31 C-9.02 31.33 -7.04 31.66 -5 32 C-3.82167379 28.46502138 -3.81602691 25.24106929 -3.8125 21.5625 C-3.79123047 19.58443359 -3.79123047 19.58443359 -3.76953125 17.56640625 C-3.97771097 14.3449133 -4.27831234 12.66079001 -6 10 C-8.32357511 9.81509993 -8.32357511 9.81509993 -11 12 Z " fill="#FDFAFA" transform="translate(757,459)"/>
<path d="M0 0 C1 1 1 1 1.09765625 2.92578125 C1.08605469 3.71339844 1.07445312 4.50101562 1.0625 5.3125 C1.05347656 6.09238281 1.04445313 6.87226563 1.03515625 7.67578125 C1.02355469 8.44277344 1.01195312 9.20976562 1 10 C1 14.05826381 1.11999378 18.10490271 1.25390625 22.16015625 C1.30433392 23.77407927 1.35445488 25.38801191 1.40429688 27.00195312 C1.48283098 29.53892487 1.56294671 32.07579308 1.64819336 34.61254883 C1.73011842 37.06578889 1.80514134 39.51915902 1.87890625 41.97265625 C1.90594131 42.73208023 1.93297638 43.49150421 1.96083069 44.27394104 C2.0520844 47.48707309 2.02560981 49.92317058 1 53 C-3.01804691 53.84098656 -6.01803543 54.05404945 -10 53 C-11.09482156 45.0495101 -11.14904061 37.20504405 -11.125 29.1875 C-11.12886719 27.87845703 -11.13273438 26.56941406 -11.13671875 25.22070312 C-11.13542969 23.96580078 -11.13414062 22.71089844 -11.1328125 21.41796875 C-11.13168457 20.28125732 -11.13055664 19.1445459 -11.12939453 17.97338867 C-11.01932619 15.4441012 -10.63194902 13.42404831 -10 11 C-10.2784375 9.7934375 -10.2784375 9.7934375 -10.5625 8.5625 C-11.10388442 5.3915341 -10.48528803 3.81422996 -9 1 C-6.01787087 -0.49106457 -3.28390342 -0.11941467 0 0 Z " fill="#FDFAFA" transform="translate(780,447)"/>
<path d="M0 0 C3 1 3 1 3 1 Z " fill="#FFFFFF" transform="translate(174,441)"/>
<path d="M0 0 C3 1 3 1 3 1 Z " fill="#FFFFFF" transform="translate(152,441)"/>
</svg>
